<?xml version="1.0" encoding="UTF-8" standalone="no"?>
<!-- Created with Inkscape (http://www.inkscape.org/) -->

<svg
   xmlns:dc="http://purl.org/dc/elements/1.1/"
   xmlns:cc="http://creativecommons.org/ns#"
   xmlns:rdf="http://www.w3.org/1999/02/22-rdf-syntax-ns#"
   xmlns:svg="http://www.w3.org/2000/svg"
   xmlns="http://www.w3.org/2000/svg"
   xmlns:sodipodi="http://sodipodi.sourceforge.net/DTD/sodipodi-0.dtd"
   xmlns:inkscape="http://www.inkscape.org/namespaces/inkscape"
   width="744.09448819"
   height="1052.3622047"
   id="svg5292"
   version="1.1"
   inkscape:version="0.48.2 r9819"
   sodipodi:docname="StAndrewsCoatOfArms600years.svg"
   inkscape:export-filename="C:\Documents and Settings\Tom\My Documents\nanoscope\matlab\testImages\StAndrewsCoatOfArms600years_640x480.png"
   inkscape:export-xdpi="230.39999"
   inkscape:export-ydpi="230.39999">
  <defs
     id="defs5294">
    <clipPath
       clipPathUnits="userSpaceOnUse"
       id="clipPath726">
      <path
         inkscape:connector-curvature="0"
         d="m 158.215,352.667 45.528,0 0,79.38 -45.528,0 0,-79.38 z"
         id="path728" />
    </clipPath>
  </defs>
  <sodipodi:namedview
     id="base"
     pagecolor="#ffffff"
     bordercolor="#666666"
     borderopacity="1.0"
     inkscape:pageopacity="0.0"
     inkscape:pageshadow="2"
     inkscape:zoom="3.9747205"
     inkscape:cx="413.55289"
     inkscape:cy="662.681"
     inkscape:document-units="px"
     inkscape:current-layer="layer1"
     showgrid="true"
     inkscape:window-width="1920"
     inkscape:window-height="1031"
     inkscape:window-x="-4"
     inkscape:window-y="-4"
     inkscape:window-maximized="1">
    <inkscape:grid
       type="xygrid"
       id="grid4142" />
  </sodipodi:namedview>
  <metadata
     id="metadata5297">
    <rdf:RDF>
      <cc:Work
         rdf:about="">
        <dc:format>image/svg+xml</dc:format>
        <dc:type
           rdf:resource="http://purl.org/dc/dcmitype/StillImage" />
        <dc:title></dc:title>
      </cc:Work>
    </rdf:RDF>
  </metadata>
  <g
     inkscape:label="Layer 1"
     inkscape:groupmode="layer"
     id="layer1">
    <rect
       style="fill:#000000;fill-opacity:1;fill-rule:evenodd;stroke:#000000;stroke-width:0.83260071px;stroke-linecap:butt;stroke-linejoin:miter;stroke-opacity:1"
       id="rect3131"
       width="249.1674"
       height="186.6674"
       x="265"
       y="297.36218" />
    <path
       id="path854"
       style="fill:#ffffff;fill-opacity:1;fill-rule:nonzero;stroke:none"
       d="m 492.32652,353.5164 c 0,0.84 -0.015,1.695 -0.195,2.485 0.875,0.305 1.65,0.43 2.5,0.43 1.985,0 3.955,-1.035 3.955,-3.005 0,-1.395 -1.005,-1.93 -3.135,-2.29 -1.355,-0.235 -1.94,-0.645 -1.94,-1.41 0,-0.615 0.23,-1.455 1.745,-1.455 1.025,0 2.08,0.54 2.08,1.47 l 0,0.41 0.5,0 c 0.015,-0.72 0.035,-1.375 0.085,-2.02 -0.695,-0.25 -1.465,-0.445 -2.31,-0.445 -1.675,0 -3.36,0.68 -3.36,2.61 0,1.09 0.665,1.63 1.53,1.95 0.85,0.32 1.83,0.52 2.625,0.715 0.55,0.145 0.86,0.61 0.86,1.185 0,0.965 -0.97,1.625 -2.095,1.625 -1.04,0 -2.31,-0.415 -2.31,-1.525 l 0,-0.73 -0.535,0 z m -10.45948,-0.74952 c -0.22,0.48 -0.415,0.965 -0.65,1.445 l -1.505,-4.935 c -0.195,-0.645 0,-0.84 0.615,-0.88 l 0.715,-0.035 0,-0.495 c -0.715,0.015 -1.415,0.05 -2.135,0.05 -0.715,0 -1.41,-0.035 -2.125,-0.05 l 0,0.495 0.5,0.035 c 0.45,0.04 0.72,0.29 1.18,1.79 l 1.825,6.01 0.845,0 1.75,-4.115 c 0.29,-0.66 0.63,-1.335 0.93,-2.005 l 2.435,6.12 0.82,0 c 0.41,-1.145 0.75,-2.34 1.235,-3.455 l 1.215,-2.785 c 0.445,-1.04 0.73,-1.52 1.145,-1.56 l 0.47,-0.035 0,-0.495 c -0.6,0.015 -1.17,0.05 -1.76,0.05 -0.59,0 -1.165,-0.035 -1.75,-0.05 l 0,0.495 0.61,0.035 c 0.66,0.04 0.86,0.415 0.575,1.2 l -0.9,2.505 c -0.265,0.75 -0.57,1.49 -0.86,2.215 l -2.05,-5.185 c -0.185,-0.465 -0.36,-0.93 -0.52,-1.445 l -0.415,0 -2.195,5.08 z m -9.23,-4.49448 c 1.285,0 1.89,1.365 1.89,3.025 -1.285,0.075 -2.785,0.11 -4.25,-0.055 -0.095,-1.95 0.98,-2.97 2.36,-2.97 m 0.07,8.16 c 1.215,0 2.74,-0.79 2.86,-1.005 l 0.36,-0.61 -0.235,-0.17 c -0.675,0.405 -1.36,0.84 -2.215,0.84 -2.2,0 -3.24,-1.435 -3.24,-3.53 l 2.615,0 c 1.07,0 2.165,-0.07 3.23,-0.245 0.04,-0.26 0.04,-0.5 0.04,-0.75 0,-2.025 -1.445,-3.275 -3.4,-3.275 -0.6,0 -1.125,0.195 -1.75,0.485 -0.39,0.175 -0.77,0.44 -1.11,0.71 -0.82,0.645 -1.29,1.68 -1.29,3.415 0,2.415 1.435,4.135 4.135,4.135 m -6.411,-7.224 c 0.65,0 1.02,0.39 1.225,0.82 l 0.365,0 0.165,-2.145 c -0.14,-0.115 -0.515,-0.195 -0.82,-0.195 -0.47,0 -1.075,0.21 -1.505,0.725 l -0.965,1.15 -0.035,0 0,-1.81 -0.16,-0.065 c -0.665,0.28 -1.735,0.625 -2.79,0.725 l 0,0.5 0.66,0 c 0.38,0 0.55,0.06 0.66,0.2 0.09,0.145 0.125,0.535 0.125,1.11 l 0,4.025 c 0,0.485 -0.015,0.835 -0.09,1.035 -0.07,0.165 -0.265,0.24 -0.57,0.25 l -0.825,0.055 0,0.535 c 0.65,-0.015 1.36,-0.05 2.24,-0.05 0.87,0 1.59,0.035 2.52,0.05 l 0,-0.535 -0.93,-0.055 c -0.415,-0.01 -0.675,-0.085 -0.75,-0.25 -0.075,-0.2 -0.09,-0.55 -0.09,-1.035 l 0,-3.08 c 0,-1.14 0.785,-1.96 1.57,-1.96 m -8.48948,2.91248 c 0,0.785 0.045,1.395 -0.455,2.025 -0.48,0.605 -1.195,1.12 -1.945,1.12 -1.86,0 -2.795,-1.8 -2.795,-3.465 0,-2.185 0.845,-3.22 2.67,-3.28 1.08,-0.03 2.525,0.94 2.525,1.295 l 0,2.305 z m -2.165,-4.435 c -0.31,0 -0.785,0.05 -1.325,0.335 l -1.57,0.825 c -0.9,0.465 -1.68,1.685 -1.68,3.305 0,2.355 1.175,4.135 3.68,4.135 0.465,0 0.985,-0.02 1.14,-0.14 l 1.99,-1.665 -0.095,1.645 c 0.475,-0.015 0.92,-0.055 1.38,-0.055 0.45,0 0.895,0.04 1.63,0.055 l 0,-0.535 -0.825,-0.055 c -0.305,-0.015 -0.5,-0.09 -0.57,-0.25 -0.075,-0.2 -0.09,-0.555 -0.09,-1.035 l 0,-11.02 -0.16,-0.145 c -0.89,0.36 -1.845,0.525 -2.785,0.66 l 0,0.505 0.99,0 c 0.405,0 0.455,0.325 0.455,0.735 l 0,3.27 c -0.775,-0.335 -1.365,-0.57 -2.165,-0.57 m -9.733,5.2e-4 c -0.715,0 -1.055,0.105 -1.445,0.445 l -1.325,1.145 -0.035,0 0,-1.52 -0.165,-0.07 c -0.66,0.285 -1.735,0.625 -2.785,0.73 l 0,0.5 0.66,0 c 0.37,0 0.555,0.06 0.66,0.195 0.09,0.15 0.125,0.535 0.125,1.115 l 0,4.02 c 0,0.485 -0.015,0.84 -0.085,1.04 -0.075,0.16 -0.27,0.235 -0.575,0.25 l -0.805,0.055 0,0.535 c 0.625,-0.015 1.34,-0.055 2.22,-0.055 0.87,0 1.59,0.04 2.215,0.055 l 0,-0.535 -0.805,-0.055 c -0.305,-0.015 -0.5,-0.09 -0.575,-0.25 -0.065,-0.2 -0.085,-0.555 -0.085,-1.04 l 0,-3.79 c 0,-0.73 1.11,-1.68 2.2,-1.68 1.215,0 2.055,0.785 2.055,2.27 l 0,5.08 c 0.415,-0.015 0.93,-0.055 1.43,-0.055 0.5,0 1.02,0.04 1.47,0.055 l 0,-0.535 -0.735,-0.055 c -0.305,-0.015 -0.5,-0.09 -0.575,-0.25 -0.07,-0.2 -0.09,-0.555 -0.09,-1.04 l 0,-3.45 c 0,-1.95 -0.86,-3.11 -2.95,-3.11 m -15.507,3.578 2.27,-5.335 2.26,5.335 -4.53,0 z m 5.315,4.27 -0.84,0.055 0,0.535 c 0.965,-0.015 1.755,-0.05 2.38,-0.05 0.805,0 1.59,0.035 2.38,0.05 l 0,-0.535 -0.61,-0.055 c -0.32,-0.035 -0.52,-0.27 -0.715,-0.605 -0.215,-0.375 -0.415,-0.86 -0.575,-1.22 l -4.33,-10.155 -0.57,0 c -0.485,1.285 -1.09,2.61 -1.645,3.86 l -3.185,7.25 c -0.195,0.465 -0.535,0.835 -0.965,0.87 l -0.66,0.055 0,0.535 c 0.675,-0.015 1.36,-0.05 2.055,-0.05 0.515,0 1.2,0.035 2.055,0.05 l 0,-0.535 -0.66,-0.055 c -0.555,-0.05 -0.86,-0.12 -0.86,-0.5 0,-0.285 0.465,-1.485 0.625,-1.855 l 0.5,-1.205 5.155,0 0.82,2.06 c 0.185,0.43 0.38,0.895 0.38,1.145 0,0.22 -0.36,0.34 -0.735,0.355 m -13.70352,-6.294 0.16,-0.97 -2.445,0.11 0,-0.68 c 0,-0.745 0.09,-1.75 0.195,-2.535 l -0.215,-0.2 c -0.305,0.2 -0.88,0.485 -1.52,0.68 0.05,0.485 0.07,0.945 0.07,1.41 l 0,1.255 -1.395,0.63 0,0.37 1.36,-0.07 0,5.155 c 0,1.445 0.805,1.895 1.755,1.895 0.37,0 1,-0.035 1.155,-0.22 l 0.86,-0.945 -0.23,-0.31 c -0.25,0.15 -0.585,0.345 -1.05,0.345 -0.755,0 -0.985,-0.41 -0.985,-1.23 l 0,-4.69 2.285,0 z m -10.64048,6.401 c -1.415,0 -2.825,-0.675 -2.92,-1.425 l -0.14,-1.205 -0.57,0 c 0.015,0.845 0.015,1.805 -0.125,2.74 0.59,0.285 1.805,0.68 3.055,0.68 2.665,0 5.405,-1.465 5.405,-4.525 0,-2.045 -1.595,-2.665 -4.115,-2.93 -2.235,-0.25 -2.95,-1.005 -2.95,-2.22 0,-1.775 1.395,-2.615 2.64,-2.615 0.7,0 1.455,0.125 1.955,0.43 0.66,0.41 0.73,0.595 0.79,1.075 l 0.105,1.02 0.575,0 c 0,-0.845 0.07,-1.615 0.25,-2.525 -0.735,-0.285 -1.81,-0.75 -3.24,-0.75 -2.145,0 -4.58,1.27 -4.58,4.04 0,1.86 1.11,2.74 3.92,3.06 1.825,0.215 3.145,0.695 3.145,2.4 0,1.77 -1.595,2.75 -3.2,2.75 m 90.46548,-20.976 0,-0.53 -0.82,-0.06 c -0.305,-0.015 -0.505,-0.09 -0.575,-0.25 -0.07,-0.195 -0.085,-0.555 -0.085,-1.04 l 0,-5.06 2.21,0 0.13,-0.945 -2.34,0.075 0,-1.525 c 0,-2.04 0.19,-2.555 1.3,-2.555 0.445,0 0.86,0.195 1.18,0.495 l 0.22,-0.105 0,-1.38 c -0.255,-0.105 -0.54,-0.195 -0.805,-0.195 -0.505,0 -1.15,0.22 -1.615,0.75 l -1.035,1.18 c -0.52,0.595 -0.75,1.4 -0.75,2.58 l 0,0.755 -1.235,0.555 0,0.39 1.235,-0.075 0,5.06 c 0,0.485 -0.02,0.845 -0.095,1.04 -0.07,0.16 -0.265,0.235 -0.575,0.25 l -0.82,0.06 0,0.53 c 0.645,-0.015 1.36,-0.05 2.24,-0.05 0.875,0 1.585,0.035 2.235,0.05 m -9.931,-7.85452 c 1.715,0 2.815,1.975 2.815,4.28 0,1.67 -0.7,3.29 -2.325,3.29 -2.295,0 -2.97,-2.49 -2.97,-4.365 0,-1.665 0.585,-3.205 2.48,-3.205 m -0.215,8.16 c 2.74,0 4.69,-1.93 4.69,-4.67 0,-2.29 -1.77,-4.075 -4.06,-4.075 -2.88,0 -4.56,1.88 -4.56,4.56 0,2.47 1.68,4.255 3.93,4.185 m -15.66048,-7.158 1.945,4.69 c 0.34,0.825 0.695,1.7 1.005,2.535 l -0.41,1.095 c -0.345,0.825 -0.915,2.275 -1.955,2.345 -0.245,0.01 -0.695,-0.195 -0.905,-0.41 l -0.235,0 -0.435,1.335 c 0.205,0.13 0.595,0.27 0.905,0.27 1.5,0 2.14,-0.89 2.71,-2.195 l 3.63,-8.375 c 0.685,-1.575 1.075,-2.125 1.505,-2.165 l 0.505,-0.035 0,-0.495 c -0.58,0.015 -1.125,0.045 -1.705,0.045 -0.57,0 -1.125,-0.03 -1.695,-0.045 l 0,0.495 0.465,0.035 c 0.645,0.055 0.915,0.25 0.645,0.91 l -2.13,5.225 c -0.375,-0.645 -0.665,-1.285 -0.915,-1.97 l -1.145,-3 c -0.37,-0.97 -0.07,-1.15 0.43,-1.165 l 0.68,-0.035 0,-0.495 c -0.7,0.015 -1.375,0.045 -2.075,0.045 -0.7,0 -1.375,-0.03 -2.08,-0.045 l 0,0.495 0.33,0.035 c 0.39,0.04 0.645,0.195 0.93,0.875 m -5.54852,5.118 c 0,1.445 0.805,1.895 1.76,1.895 0.37,0 0.995,-0.035 1.16,-0.21 l 0.86,-0.95 -0.235,-0.305 c -0.25,0.14 -0.595,0.335 -1.06,0.335 -0.75,0 -0.985,-0.405 -0.985,-1.23 l 0,-4.685 2.29,0 0.16,-0.97 -2.45,0.11 0,-0.68 c 0,-0.75 0.095,-1.755 0.205,-2.54 l -0.215,-0.19 c -0.305,0.19 -0.88,0.475 -1.525,0.67 0.05,0.49 0.07,0.95 0.07,1.42 l 0,1.255 -1.39,0.625 0,0.37 1.355,-0.07 0,5.15 z m -2.108,1.73452 0,-0.53 -0.82,-0.06 c -0.31,-0.015 -0.5,-0.09 -0.575,-0.25 -0.075,-0.195 -0.09,-0.555 -0.09,-1.04 l 0,-6.49 -0.16,-0.07 c -0.665,0.28 -1.73,0.63 -2.79,0.73 l 0,0.505 0.66,0 c 0.38,0 0.555,0.05 0.66,0.2 0.09,0.14 0.13,0.53 0.13,1.1 l 0,4.025 c 0,0.485 -0.025,0.845 -0.095,1.04 -0.065,0.16 -0.265,0.235 -0.565,0.25 l -0.83,0.06 0,0.53 c 0.65,-0.015 1.36,-0.05 2.235,-0.05 0.885,0 1.595,0.035 2.24,0.05 m -2.32652,-10.353 c 0.525,0 1.005,-0.465 1.005,-0.99 0,-0.51 -0.48,-1 -1.005,-1 -0.515,0 -0.98,0.49 -0.98,1 0,0.525 0.465,0.99 0.98,0.99 m -9.36796,7.74248 c 0,0.84 -0.025,1.7 -0.2,2.485 0.87,0.31 1.64,0.43 2.505,0.43 1.98,0 3.95,-1.035 3.95,-3.005 0,-1.39 -1,-1.93 -3.125,-2.285 -1.36,-0.24 -1.96,-0.645 -1.96,-1.42 0,-0.6 0.235,-1.45 1.76,-1.45 1.015,0 2.075,0.54 2.075,1.47 l 0,0.41 0.505,0 c 0.015,-0.72 0.035,-1.375 0.085,-2.015 -0.695,-0.25 -1.465,-0.45 -2.305,-0.45 -1.68,0 -3.365,0.68 -3.365,2.61 0,1.095 0.665,1.63 1.515,1.95 0.865,0.32 1.85,0.52 2.64,0.72 0.555,0.135 0.855,0.605 0.855,1.175 0,0.97 -0.965,1.63 -2.095,1.63 -1.035,0 -2.305,-0.415 -2.305,-1.525 l 0,-0.73 -0.535,0 z m -2.669,2.61052 0,-0.53 -0.93,-0.06 c -0.405,-0.015 -0.68,-0.09 -0.75,-0.25 -0.075,-0.195 -0.085,-0.555 -0.085,-1.04 l 0,-3.07 c 0,-1.145 0.775,-1.97 1.565,-1.97 0.65,0 1.025,0.395 1.22,0.825 l 0.38,0 0.16,-2.145 c -0.15,-0.115 -0.52,-0.2 -0.825,-0.2 -0.47,0 -1.07,0.21 -1.5,0.73 l -0.965,1.15 -0.035,0 0,-1.81 -0.165,-0.07 c -0.66,0.28 -1.735,0.63 -2.79,0.73 l 0,0.505 0.66,0 c 0.375,0 0.56,0.05 0.665,0.2 0.085,0.14 0.12,0.53 0.12,1.1 l 0,4.025 c 0,0.485 -0.015,0.845 -0.085,1.04 -0.07,0.16 -0.27,0.235 -0.57,0.25 l -0.825,0.06 0,0.53 c 0.645,-0.015 1.36,-0.05 2.235,-0.05 0.875,0 1.59,0.035 2.52,0.05 m -9.17452,-7.85452 c 1.29,0 1.895,1.365 1.895,3.03 -1.285,0.07 -2.785,0.105 -4.255,-0.055 -0.09,-1.955 0.985,-2.975 2.36,-2.975 m 0.075,8.16 c 1.215,0 2.73,-0.79 2.86,-1 l 0.36,-0.61 -0.24,-0.18 c -0.675,0.415 -1.355,0.845 -2.215,0.845 -2.195,0 -3.235,-1.435 -3.235,-3.53 l 2.61,0 c 1.075,0 2.165,-0.07 3.24,-0.24 0.035,-0.255 0.035,-0.505 0.035,-0.755 0,-2.02 -1.45,-3.275 -3.4,-3.275 -0.605,0 -1.125,0.195 -1.755,0.485 -0.39,0.175 -0.765,0.445 -1.1,0.71 -0.83,0.64 -1.295,1.68 -1.295,3.42 0,2.415 1.43,4.13 4.135,4.13 m -13.077,-7.442 3.08,7.21 0.89,0 c 0.25,-0.605 0.435,-1.29 0.735,-1.95 l 2.11,-4.65 c 0.25,-0.535 0.555,-1.16 1,-1.2 l 0.56,-0.035 0,-0.5 c -0.56,0.02 -1.13,0.05 -1.685,0.05 -0.555,0 -1.125,-0.03 -1.685,-0.05 l 0,0.5 0.735,0.035 c 0.54,0.015 0.575,0.54 0.09,1.77 l -0.75,1.9 c -0.34,0.84 -0.735,1.68 -1.11,2.505 l -2.13,-5.15 c -0.3,-0.755 -0.18,-1.01 0.29,-1.025 l 0.875,-0.035 0,-0.5 c -0.695,0.02 -1.38,0.05 -2.075,0.05 -0.695,0 -1.39,-0.03 -2.095,-0.05 l 0,0.5 0.615,0.035 c 0.335,0.015 0.445,0.34 0.55,0.59 m -3.95052,-3.21648 c 0.515,0 1,-0.465 1,-0.99 0,-0.51 -0.485,-1 -1,-1 -0.515,0 -0.985,0.49 -0.985,1 0,0.525 0.47,0.99 0.985,0.99 m 2.32352,10.353 0,-0.53 -0.825,-0.06 c -0.3,-0.015 -0.5,-0.09 -0.57,-0.25 -0.07,-0.195 -0.09,-0.555 -0.09,-1.04 l 0,-6.49 -0.16,-0.07 c -0.66,0.28 -1.735,0.63 -2.795,0.73 l 0,0.505 0.665,0 c 0.375,0 0.555,0.05 0.665,0.2 0.09,0.14 0.125,0.53 0.125,1.1 l 0,4.025 c 0,0.485 -0.02,0.845 -0.095,1.04 -0.065,0.16 -0.265,0.235 -0.57,0.25 l -0.825,0.06 0,0.53 c 0.65,-0.015 1.365,-0.05 2.24,-0.05 0.875,0 1.59,0.035 2.235,0.05 m -10.71048,0 0,-0.53 -0.805,-0.06 c -0.305,-0.015 -0.5,-0.09 -0.57,-0.25 -0.075,-0.195 -0.095,-0.555 -0.095,-1.04 l 0,-3.785 c 0,-0.74 1.11,-1.685 2.2,-1.685 1.215,0 2.06,0.79 2.06,2.27 l 0,5.08 c 0.41,-0.015 0.93,-0.05 1.43,-0.05 0.5,0 1.02,0.035 1.465,0.05 l 0,-0.53 -0.73,-0.06 c -0.305,-0.015 -0.5,-0.09 -0.575,-0.25 -0.07,-0.195 -0.09,-0.555 -0.09,-1.04 l 0,-3.45 c 0,-1.945 -0.86,-3.11 -2.95,-3.11 -0.72,0 -1.055,0.11 -1.45,0.445 l -1.325,1.145 -0.035,0 0,-1.52 -0.155,-0.07 c -0.665,0.28 -1.74,0.63 -2.795,0.73 l 0,0.505 0.66,0 c 0.375,0 0.555,0.05 0.665,0.2 0.09,0.14 0.125,0.53 0.125,1.1 l 0,4.025 c 0,0.485 -0.025,0.845 -0.09,1.04 -0.07,0.16 -0.27,0.235 -0.57,0.25 l -0.81,0.06 0,0.53 c 0.63,-0.015 1.345,-0.05 2.22,-0.05 0.88,0 1.59,0.035 2.22,0.05 m -16.634,-11.57352 c 0.125,0.2 0.16,0.665 0.16,1.34 l 0,6.355 c 0,3.275 1.79,4.185 4.83,4.185 3.61,0 5.06,-1.54 5.06,-5.37 l 0,-5.17 c 0,-0.675 0.035,-1.14 0.16,-1.34 0.11,-0.175 0.325,-0.225 0.755,-0.265 l 0.785,-0.055 0,-0.54 c -0.785,0.02 -1.43,0.06 -2.145,0.06 -0.645,0 -1.36,-0.04 -2.075,-0.06 l 0,0.54 0.785,0.055 c 0.43,0.04 0.645,0.09 0.75,0.265 0.13,0.2 0.16,0.665 0.16,1.34 l 0,5.73 c 0,2.965 -1.75,3.7 -3.68,3.7 -2.365,0 -3.685,-0.735 -3.685,-3.27 l 0,-6.16 c 0,-0.675 0.035,-1.14 0.16,-1.34 0.105,-0.175 0.325,-0.245 0.75,-0.265 l 0.865,-0.055 0,-0.54 c -0.935,0.04 -1.775,0.06 -2.6,0.06 -0.875,0 -1.715,-0.02 -2.645,-0.06 l 0,0.54 0.86,0.055 c 0.425,0.02 0.645,0.09 0.75,0.265 m -2.94752,50.64052 103.145,0 0,-1.96 -103.145,0 0,1.96 z m 92.927,74.28948 c -0.395,-0.34 -1.005,-0.63 -1.825,-0.875 -0.875,-0.165 -1.855,-0.325 -2.955,-0.47 -1.09,-0.145 -1.875,-0.305 -2.36,-0.47 -0.7,-0.245 -1.19,-0.57 -1.46,-0.98 -0.27,-0.405 -0.405,-0.98 -0.405,-1.72 0,-1.23 0.38,-2.235 1.135,-3.005 0.76,-0.775 1.775,-1.16 3.045,-1.16 0.985,0 1.925,0.255 2.825,0.765 0.38,0.25 0.68,0.535 0.895,0.85 0.055,0.125 0.095,0.86 0.115,2.205 l 0.885,0 c 0.025,-0.925 0.065,-1.625 0.115,-2.105 0.055,-0.475 0.14,-0.99 0.265,-1.54 -0.765,-0.375 -1.585,-0.665 -2.465,-0.86 -0.875,-0.2 -1.685,-0.3 -2.435,-0.3 -1.23,0 -2.375,0.255 -3.43,0.76 -1.055,0.51 -1.845,1.22 -2.385,2.13 -0.54,0.915 -0.81,1.885 -0.81,2.915 0,0.71 0.135,1.37 0.4,1.98 0.27,0.61 0.615,1.105 1.045,1.485 0.43,0.37 1.1,0.7 2.01,0.98 0.685,0.15 1.51,0.285 2.48,0.41 0.975,0.125 1.615,0.215 1.945,0.265 0.515,0.105 0.945,0.29 1.295,0.55 0.35,0.255 0.61,0.595 0.785,1.015 0.165,0.42 0.25,0.92 0.25,1.49 0,0.76 -0.165,1.465 -0.51,2.13 -0.34,0.66 -0.885,1.195 -1.63,1.605 -0.745,0.405 -1.56,0.61 -2.445,0.61 -0.605,0 -1.235,-0.1 -1.88,-0.31 -0.65,-0.205 -1.17,-0.44 -1.555,-0.7 -0.385,-0.265 -0.625,-0.515 -0.725,-0.74 -0.1,-0.235 -0.175,-0.99 -0.215,-2.265 l -0.885,0 c -0.02,1.88 -0.11,3.24 -0.245,4.075 1.405,0.69 2.98,1.03 4.71,1.03 2.295,0 4.165,-0.65 5.605,-1.945 1.44,-1.295 2.165,-2.815 2.165,-4.555 0,-0.735 -0.125,-1.38 -0.38,-1.925 -0.25,-0.55 -0.58,-0.99 -0.97,-1.325 m -13.084,8.33404 c -0.155,-0.14 -0.705,-0.825 -1.655,-2.04 l -3.31,-4.345 c -0.815,-1.06 -1.33,-1.735 -1.55,-2.045 1.2,-0.26 2.175,-0.635 2.925,-1.115 0.745,-0.485 1.315,-1.085 1.71,-1.81 0.39,-0.73 0.595,-1.46 0.595,-2.195 0,-0.785 -0.215,-1.515 -0.635,-2.185 -0.42,-0.67 -1.01,-1.155 -1.78,-1.45 -0.765,-0.295 -1.98,-0.445 -3.65,-0.445 -0.22,0 -1.015,0.025 -2.38,0.07 -1.045,0.035 -1.82,0.05 -2.32,0.05 l -2.52,-0.06 c -0.705,-0.015 -1.22,-0.025 -1.565,-0.035 l 0,0.845 c 1.04,0.015 1.68,0.06 1.895,0.135 0.225,0.075 0.385,0.185 0.49,0.34 0.095,0.155 0.165,0.645 0.19,1.475 0.03,1.14 0.04,2.3 0.04,3.49 l 0,6.07 c -0.035,2.305 -0.06,3.545 -0.065,3.725 -0.03,0.675 -0.09,1.1 -0.2,1.275 -0.085,0.13 -0.24,0.235 -0.465,0.305 -0.23,0.075 -0.855,0.12 -1.885,0.14 l 0,0.835 c 1.99,-0.055 3.4,-0.09 4.24,-0.09 1.045,0 2.18,0.035 3.43,0.09 l 0,-0.835 c -1.03,-0.02 -1.655,-0.065 -1.885,-0.14 -0.225,-0.07 -0.39,-0.185 -0.49,-0.345 -0.095,-0.16 -0.16,-0.655 -0.175,-1.485 -0.04,-1.125 -0.065,-2.285 -0.065,-3.475 l 0,-5.82 c 0.05,-2.42 0.08,-3.695 0.09,-3.82 0.02,-0.41 0.05,-0.85 0.085,-1.32 0.86,-0.275 1.745,-0.41 2.645,-0.41 1.435,0 2.51,0.32 3.215,0.95 0.71,0.635 1.065,1.495 1.065,2.57 0,1.23 -0.41,2.225 -1.235,2.98 -0.82,0.75 -2.03,1.125 -3.62,1.125 -0.235,0 -0.585,-0.015 -1.04,-0.04 l -0.13,0.395 c 0.83,0.955 1.71,2.015 2.635,3.19 0.57,0.705 1.23,1.585 1.97,2.64 1.345,1.905 2.305,3.19 2.875,3.84 0.745,-0.055 1.375,-0.09 1.885,-0.09 0.5,0 1.075,0.035 1.745,0.09 l 0,-0.835 c -0.45,0 -0.735,-0.025 -0.87,-0.065 -0.08,-0.025 -0.155,-0.07 -0.235,-0.13 m -31.072,-6.33152 3.35,-7.895 3.265,7.895 -6.615,0 z m 11.835,5.71 c -0.295,-0.54 -0.9,-1.88 -1.81,-4.015 l -5.615,-13.165 -0.84,0 c -1.17,2.81 -1.94,4.62 -2.3,5.435 l -3.285,7.4 c -0.98,2.14 -1.55,3.37 -1.705,3.69 -0.275,0.57 -0.485,0.92 -0.625,1.055 -0.145,0.14 -0.305,0.235 -0.475,0.275 -0.17,0.05 -0.6,0.08 -1.295,0.09 l 0,0.89 c 1.01,-0.08 1.94,-0.115 2.79,-0.115 0.735,0 1.845,0.035 3.325,0.115 l 0,-0.89 c -0.815,-0.01 -1.385,-0.05 -1.705,-0.125 -0.205,-0.035 -0.355,-0.12 -0.45,-0.235 -0.07,-0.075 -0.105,-0.175 -0.105,-0.3 0,-0.275 0.13,-0.72 0.385,-1.32 l 1.425,-3.375 7.6,0 1.615,4.015 c 0.12,0.305 0.18,0.555 0.18,0.745 0,0.125 -0.04,0.225 -0.115,0.315 -0.07,0.08 -0.21,0.145 -0.425,0.185 -0.21,0.045 -0.8,0.08 -1.785,0.095 l 0,0.89 4.235,-0.13 c 0.54,0 1.5,0.045 2.865,0.13 l 0,-0.89 c -0.695,-0.01 -1.135,-0.065 -1.34,-0.16 -0.195,-0.095 -0.375,-0.295 -0.545,-0.605 m -20.52848,-1.15452 c -0.105,0.465 -0.21,0.83 -0.315,1.105 -0.4,0.165 -0.84,0.285 -1.31,0.355 -0.47,0.07 -1.265,0.1 -2.37,0.1 -1.565,0 -2.975,-0.045 -4.235,-0.14 -0.045,-0.84 -0.065,-2.07 -0.065,-3.685 0,-1.725 0.02,-3.03 0.065,-3.905 1.075,-0.04 1.91,-0.06 2.495,-0.06 1.435,0 2.4,0.05 2.9,0.155 0.28,0.06 0.47,0.17 0.57,0.325 0.1,0.165 0.16,0.56 0.18,1.21 l 0.035,0.895 0.92,0 -0.065,-3.06 0.065,-2.73 0,-0.25 -0.785,0 -0.08,0.92 c -0.06,0.615 -0.13,0.97 -0.21,1.075 -0.08,0.105 -0.26,0.175 -0.54,0.21 -0.735,0.095 -1.62,0.145 -2.66,0.145 -0.86,0 -1.8,-0.03 -2.825,-0.09 l 0.055,-4.425 c 0.015,-0.84 0.04,-1.75 0.075,-2.715 0.315,-0.03 0.835,-0.06 1.565,-0.09 0.725,-0.035 1.195,-0.055 1.405,-0.055 0.975,0 1.96,0.06 2.935,0.185 0.58,0.07 1.11,0.205 1.59,0.405 0.125,0.735 0.18,1.55 0.17,2.44 l 0.83,0 c 0.14,-1.74 0.215,-2.65 0.235,-2.73 0.05,-0.365 0.15,-0.8 0.29,-1.3 -0.77,-0.095 -1.59,-0.145 -2.455,-0.145 -0.86,0 -2.235,0.015 -4.135,0.04 l -3.965,0.065 -3.74,-0.075 0,0.84 c 1.04,0.015 1.675,0.065 1.9,0.135 0.22,0.075 0.385,0.185 0.485,0.34 0.1,0.155 0.16,0.645 0.19,1.475 0.025,1.135 0.04,2.3 0.04,3.485 l 0,6.695 c 0,0.845 -0.03,1.84 -0.08,2.99 -0.035,0.745 -0.095,1.205 -0.185,1.375 -0.055,0.115 -0.14,0.195 -0.265,0.25 -0.285,0.13 -0.89,0.2 -1.81,0.21 l 0,0.84 c 2.18,-0.06 3.325,-0.095 3.44,-0.095 l 7.835,0.095 c 1.075,0 1.99,-0.055 2.745,-0.17 0,-1.165 0.115,-2.63 0.34,-4.4 l -0.88,0 c -0.06,0.395 -0.185,0.985 -0.38,1.76 M 420.66452,443.5104 c -0.975,1.67 -1.925,3.215 -2.85,4.645 -0.92,-1.845 -1.79,-3.485 -2.6,-4.92 -0.815,-1.435 -1.535,-2.565 -2.155,-3.395 -0.42,-0.56 -0.695,-0.895 -0.825,-1.005 -0.13,-0.11 -0.37,-0.225 -0.725,-0.345 l -3.16,0.615 0,0.805 c 0.525,0 0.91,0.04 1.16,0.125 0.25,0.09 0.49,0.245 0.715,0.46 0.42,0.4 0.95,1.045 1.59,1.955 0.33,0.47 0.84,1.27 1.525,2.385 l 0.865,1.415 c 0.77,1.29 1.215,2.035 1.335,2.255 0.175,0.315 0.355,0.67 0.54,1.06 l 0,1.54 c -0.035,2.3 -0.055,3.545 -0.065,3.725 -0.025,0.675 -0.095,1.1 -0.21,1.27 -0.08,0.135 -0.23,0.24 -0.455,0.31 -0.23,0.08 -0.855,0.12 -1.88,0.14 l 0,0.84 c 1.635,-0.06 2.95,-0.095 3.95,-0.095 1.04,0 2.275,0.035 3.7,0.095 l 0,-0.84 c -1.04,-0.02 -1.675,-0.06 -1.895,-0.14 -0.225,-0.07 -0.385,-0.185 -0.485,-0.345 -0.105,-0.16 -0.165,-0.655 -0.195,-1.485 -0.025,-1.125 -0.035,-2.285 -0.035,-3.475 l 0,-1.01 c 0,-0.25 0.045,-0.505 0.14,-0.785 0.1,-0.275 0.52,-1.02 1.265,-2.235 1.19,-1.965 2.155,-3.46 2.9,-4.495 1.285,-1.78 2.17,-2.94 2.65,-3.475 l 0,-0.355 -2,0 -2.8,4.76 z m 65.95252,-17.35648 c -1.195,1.86 -2.91,2.79 -5.15,2.79 -1.315,0 -2.5,-0.36 -3.565,-1.085 -1.055,-0.725 -1.86,-1.66 -2.41,-2.795 -0.805,-1.685 -1.395,-3.885 -1.77,-6.6 -0.375,-2.715 -0.555,-5.485 -0.555,-8.31 0,-5.96 0.315,-10.23 0.94,-12.805 0.625,-2.58 1.545,-4.36 2.75,-5.34 1.21,-0.98 2.58,-1.47 4.11,-1.47 1.395,0 2.585,0.355 3.575,1.075 0.995,0.715 1.765,1.63 2.31,2.75 0.845,1.745 1.45,3.975 1.815,6.69 0.36,2.715 0.54,5.78 0.54,9.19 0,7.94 -0.86,13.245 -2.59,15.91 m 5.43,-31.635 c -0.615,-1.24 -1.375,-2.29 -2.265,-3.145 -0.89,-0.85 -2.04,-1.555 -3.435,-2.11 -1.4,-0.56 -2.925,-0.84 -4.57,-0.84 -3.255,0 -5.935,0.99 -8.055,2.97 -2.115,1.975 -3.57,4.485 -4.375,7.52 -0.805,3.035 -1.205,7.345 -1.205,12.93 0,2.33 0.235,4.795 0.705,7.39 0.47,2.595 1.33,4.905 2.585,6.92 0.9,1.415 2.11,2.565 3.645,3.47 1.53,0.9 3.355,1.35 5.49,1.35 1.765,0 3.355,-0.31 4.765,-0.925 1.41,-0.62 2.61,-1.445 3.61,-2.48 1,-1.04 1.86,-2.3 2.59,-3.78 0.725,-1.48 1.285,-3.11 1.675,-4.89 0.685,-3.135 1.025,-6.895 1.025,-11.285 0,-3.37 -0.29,-6.485 -0.875,-9.345 -0.26,-1.255 -0.69,-2.505 -1.31,-3.75 m -47.42952,2.83048 c 0.63,-2.58 1.545,-4.36 2.75,-5.34 1.21,-0.98 2.575,-1.47 4.11,-1.47 1.395,0 2.585,0.355 3.58,1.07 0.985,0.72 1.755,1.635 2.305,2.755 0.845,1.745 1.45,3.975 1.81,6.69 0.37,2.715 0.545,5.78 0.545,9.19 0,7.935 -0.86,13.24 -2.59,15.91 -1.195,1.86 -2.91,2.79 -5.15,2.79 -1.315,0 -2.505,-0.36 -3.565,-1.085 -1.06,-0.725 -1.86,-1.66 -2.41,-2.795 -0.81,-1.685 -1.395,-3.885 -1.77,-6.6 -0.37,-2.72 -0.56,-5.485 -0.56,-8.31 0,-5.96 0.315,-10.23 0.945,-12.805 m 0.97,32.275 c 1.525,0.9 3.355,1.35 5.495,1.35 1.76,0 3.35,-0.31 4.76,-0.925 1.405,-0.62 2.615,-1.445 3.615,-2.48 0.995,-1.04 1.86,-2.3 2.58,-3.785 0.73,-1.475 1.29,-3.105 1.68,-4.885 0.685,-3.135 1.025,-6.9 1.025,-11.285 0,-3.37 -0.29,-6.485 -0.875,-9.345 -0.26,-1.255 -0.695,-2.505 -1.31,-3.75 -0.62,-1.24 -1.375,-2.29 -2.265,-3.145 -0.89,-0.85 -2.04,-1.555 -3.44,-2.11 -1.4,-0.56 -2.92,-0.84 -4.565,-0.84 -3.255,0 -5.94,0.985 -8.055,2.97 -2.115,1.975 -3.575,4.485 -4.38,7.52 -0.8,3.035 -1.205,7.345 -1.205,12.93 0,2.33 0.24,4.79 0.705,7.39 0.47,2.595 1.335,4.905 2.59,6.92 0.9,1.415 2.115,2.565 3.645,3.47 m -16.943,-5.39352 c -0.715,1.655 -1.655,2.85 -2.82,3.585 -1.17,0.735 -2.425,1.105 -3.78,1.105 -1,0 -1.92,-0.19 -2.775,-0.56 -0.85,-0.375 -1.585,-0.905 -2.205,-1.59 -0.615,-0.685 -1.115,-1.46 -1.495,-2.32 -0.385,-0.865 -0.685,-1.745 -0.9,-2.645 -0.35,-1.525 -0.53,-3.065 -0.53,-4.61 0,-1.885 0.16,-3.28 0.475,-4.19 0.31,-0.91 1.055,-1.78 2.23,-2.6 1.645,-1.155 3.33,-1.735 5.055,-1.735 1.37,0 2.67,0.36 3.895,1.085 1.225,0.725 2.185,1.86 2.88,3.395 0.695,1.54 1.04,3.335 1.04,5.395 0,2.135 -0.355,4.03 -1.07,5.685 m 4.775,-1.16 c 0.92,-1.865 1.38,-4.045 1.38,-6.555 0,-3.68 -0.93,-6.495 -2.79,-8.43 -1.86,-1.945 -4.495,-2.915 -7.905,-2.915 -0.98,0 -1.82,0.09 -2.515,0.255 -0.695,0.165 -1.245,0.355 -1.645,0.57 -0.4,0.215 -1.305,0.87 -2.715,1.97 -0.55,0.41 -1.395,1.02 -2.53,1.82 0.215,-2.525 0.69,-4.765 1.425,-6.715 0.735,-1.95 1.855,-3.85 3.365,-5.7 1.51,-1.85 3.45,-3.5 5.82,-4.95 2.37,-1.455 4.64,-2.42 6.815,-2.91 l 0,-0.35 -2.145,-1.03 c -2.76,0.665 -5.47,1.815 -8.125,3.45 -2.655,1.64 -4.94,3.545 -6.86,5.715 -1.92,2.175 -3.435,4.77 -4.54,7.79 -1.11,3.015 -1.66,6.305 -1.66,9.875 0,5.19 1.175,9.145 3.525,11.855 2.35,2.715 5.32,4.07 8.905,4.07 2.095,0 3.865,-0.34 5.305,-1.015 1.44,-0.675 2.71,-1.5 3.82,-2.48 1.105,-0.98 2.13,-2.42 3.07,-4.32" />
    <g
       id="g6033"
       transform="matrix(4.4,0,0,4.4,-2237.838,-1384.2599)">
      <g
         id="g5951">
        <g
           id="g856"
           transform="matrix(1.25,0,0,-1.25,574.09791,388.09468)">
          <path
             inkscape:connector-curvature="0"
             d="m 0,0 c -0.021,-0.583 -0.131,-3.654 -0.131,-3.654 -0.084,-2.143 -0.157,-4.023 -0.157,-5.697 0,-7.366 1.424,-10.72 9.62,-14.695 8.195,3.975 9.62,7.328 9.62,14.691 0,1.676 -0.075,3.558 -0.159,5.704 0,0 -0.107,3.069 -0.128,3.651 L 0,0 z"
             style="fill:#ffffff;fill-opacity:1;fill-rule:nonzero;stroke:none"
             id="path858" />
        </g>
        <g
           id="g860"
           transform="matrix(1.25,0,0,-1.25,587.04254,394.4508)">
          <path
             inkscape:connector-curvature="0"
             d="m 0,0 -0.013,0.042 c 0.546,0.358 0.904,0.942 0.904,1.51 0,0.959 -0.874,1.739 -1.94,1.739 -1.06,0 -1.946,-0.78 -1.946,-1.739 0,-0.568 0.355,-1.152 0.903,-1.51 L -2.105,0 c -0.801,0.366 -1.385,1.122 -1.385,1.909 0,1.132 1.13,2.07 2.447,2.07 1.318,0 2.425,-0.938 2.425,-2.07 C 1.382,1.122 0.801,0.366 0,0 m -0.434,-0.095 -0.017,0.042 c 0,0 0.13,0.056 0.303,0.163 0.34,0.208 0.62,0.635 0.62,1.045 0,0.72 -0.673,1.307 -1.517,1.307 -0.842,0 -1.534,-0.587 -1.534,-1.307 0,-0.41 0.282,-0.837 0.618,-1.045 0.177,-0.107 0.307,-0.163 0.307,-0.163 l -0.018,-0.042 c 0,0 -0.145,0.054 -0.32,0.163 -0.59,0.36 -0.905,0.951 -0.905,1.484 0,0.906 0.841,1.643 1.848,1.643 1.012,0 1.842,-0.737 1.842,-1.643 0,-0.533 -0.317,-1.124 -0.904,-1.484 -0.176,-0.109 -0.323,-0.163 -0.323,-0.163 m 8.168,4.549 -17.491,0 -0.186,-4.879 17.875,0 -0.198,4.879 z"
             style="fill:#ee2722;fill-opacity:1;fill-rule:nonzero;stroke:none"
             id="path862" />
        </g>
        <g
           id="g864"
           transform="matrix(1.25,0,0,-1.25,582.46841,395.9938)">
          <path
             inkscape:connector-curvature="0"
             d="m 0,0 0,-2.701 c 0.14,-0.11 0.31,-0.152 0.495,-0.158 0.446,-0.015 0.979,0.19 1.444,0.19 0.257,-10e-4 0.494,-0.066 0.675,-0.263 0.183,0.197 0.407,0.262 0.664,0.263 0.462,0 1.003,-0.205 1.448,-0.19 0.184,0.006 0.351,0.048 0.494,0.158 L 5.22,0 C 5.095,-0.01 4.93,0.142 4.878,0.288 l 0,-2.737 C 4.851,-2.469 4.646,-2.631 4.326,-2.634 3.983,-2.637 3.579,-2.477 3.209,-2.477 c -0.231,0 -0.408,-0.097 -0.555,-0.254 l -0.082,0 c 0,0 -0.218,0.254 -0.56,0.254 -0.356,0 -0.777,-0.164 -1.117,-0.164 -0.338,0 -0.52,0.177 -0.55,0.198 l 0,2.731 C 0.277,0.148 0.123,0.006 0,0"
             style="fill:#ee2722;fill-opacity:1;fill-rule:nonzero;stroke:none"
             id="path866" />
        </g>
        <g
           id="g868"
           transform="matrix(1.25,0,0,-1.25,585.48878,404.69692)">
          <path
             inkscape:connector-curvature="0"
             d="M 0,0 C -0.056,0.08 -0.07,0.213 -0.015,0.297 0.12,0.21 0.243,0.196 0.395,0.168 0.263,0.13 0.11,0.082 0,0 M 6.621,-3.658 C 6.655,-3.69 6.68,-3.714 6.708,-3.745 6.867,-3.93 6.773,-4.345 6.604,-4.446 6.678,-4.196 6.483,-3.999 6.234,-4.069 6.331,-4.122 6.385,-4.279 6.345,-4.428 6.304,-4.57 6.143,-4.702 5.984,-4.672 5.77,-4.633 5.89,-4.351 5.882,-4.172 5.874,-3.917 5.714,-3.797 5.593,-3.74 5.578,-3.733 5.591,-3.716 5.591,-3.716 5.676,-3.739 5.757,-3.772 5.872,-3.771 6.031,-3.77 6.155,-3.681 6.207,-3.612 6.269,-3.534 6.295,-3.399 6.258,-3.3 6.232,-3.344 6.194,-3.394 6.156,-3.431 6.065,-3.515 5.886,-3.527 5.756,-3.464 5.622,-3.401 5.493,-3.264 5.392,-3.131 5.045,-2.66 4.626,-2.181 4.194,-1.898 3.928,-1.723 3.576,-1.581 3.238,-1.571 3.033,-1.566 2.829,-1.608 2.651,-1.72 2.418,-1.87 2.275,-2.129 2.246,-2.376 2.21,-2.664 2.312,-2.953 2.487,-3.179 2.724,-3.48 3.051,-3.7 3.372,-3.903 3.602,-4.051 3.831,-4.211 4.046,-4.38 4.217,-4.516 4.361,-4.67 4.41,-4.891 4.457,-5.094 4.366,-5.235 4.285,-5.304 4.142,-5.424 3.754,-5.413 3.611,-5.293 c -0.092,0.7 -0.573,1.007 -1.198,1.156 -0.298,0.072 -0.614,0.146 -0.865,0.285 -0.225,0.122 -0.428,0.247 -0.527,0.54 -0.04,-0.009 -0.145,0.011 -0.226,0.043 -0.183,0.07 -0.246,0.194 -0.28,0.305 0.109,-0.11 0.204,-0.177 0.483,-0.19 0.167,-0.008 0.392,0.075 0.478,0.217 C 1.303,-2.96 1.165,-2.949 1.065,-2.89 0.97,-2.83 0.876,-2.697 0.895,-2.55 1.061,-2.724 1.37,-2.788 1.652,-2.651 c 0.038,0.019 0.165,0.116 0.171,0.159 -0.15,-0.016 -0.284,0.012 -0.372,0.085 -0.094,0.074 -0.149,0.186 -0.148,0.342 0.096,-0.097 0.271,-0.15 0.437,-0.144 0.17,0.006 0.327,0.075 0.386,0.211 -0.128,-0.022 -0.255,0.006 -0.355,0.069 -0.095,0.06 -0.164,0.153 -0.17,0.27 C 1.437,-1.647 1.308,-1.574 1.228,-1.477 1.134,-1.612 1.104,-1.924 1.119,-2.137 0.854,-2.128 0.631,-1.944 0.591,-1.695 0.475,-1.826 0.458,-2.147 0.519,-2.326 c -0.317,0.019 -0.508,0.19 -0.584,0.451 -0.044,-0.093 -0.067,-0.223 -0.065,-0.362 0.001,-0.039 0.008,-0.114 0.018,-0.171 0,0 -0.077,0.004 -0.185,0.081 -0.143,0.093 -0.268,0.328 -0.258,0.441 0.081,-0.123 0.186,-0.232 0.307,-0.309 -0.014,0.288 0.118,0.509 0.274,0.62 0.001,-0.31 0.1,-0.489 0.349,-0.554 -0.043,0.183 0.012,0.331 0.054,0.443 0.043,0.108 0.157,0.252 0.221,0.294 0.002,-0.252 0.122,-0.503 0.336,-0.56 -0.007,0.196 0.033,0.421 0.104,0.56 0.036,0.065 0.079,0.137 0.135,0.167 0.059,-0.201 0.317,-0.302 0.549,-0.309 0.628,-0.018 0.659,0.497 0.659,0.497 -0.084,-0.04 -0.198,-0.11 -0.408,-0.11 -0.256,0 -0.327,0.205 -0.327,0.205 0.148,-0.059 0.446,0.017 0.586,0.126 0.089,0.069 0.197,0.216 0.209,0.346 0.008,0.125 -0.021,0.239 -0.105,0.298 -0.103,-0.272 -0.699,-0.416 -0.903,-0.141 0.224,-0.018 0.432,0.082 0.508,0.225 0.023,0.035 0.044,0.144 0.025,0.196 0,0 -0.163,-0.108 -0.378,-0.116 -0.232,-0.009 -0.357,0.087 -0.357,0.087 0.154,0.009 0.448,0.165 0.429,0.357 0,0 -0.095,-0.035 -0.161,-0.04 C 1.378,0.377 1.165,0.399 1.05,0.482 1.055,0.512 1.119,0.952 1.066,1.008 0.873,0.918 0.689,0.775 0.581,0.588 0.466,0.607 0.327,0.622 0.166,0.621 0.006,0.619 -0.176,0.587 -0.26,0.545 -0.299,0.523 -0.369,0.472 -0.408,0.424 -0.453,0.373 -0.468,0.307 -0.514,0.277 -0.626,0.21 -0.81,0.186 -0.958,0.173 -1.073,0.163 -1.223,0.179 -1.259,0.091 c -0.039,-0.097 0.038,-0.148 0.074,-0.193 0.022,-0.036 0.049,-0.087 0.065,-0.134 0.015,-0.041 0.034,-0.11 0.056,-0.145 0.148,-0.235 0.293,-0.131 0.457,-0.079 0.177,0.059 0.42,0.125 0.636,0.123 0.128,0 0.265,-0.017 0.371,-0.086 0.096,-0.06 0.147,-0.196 0.141,-0.31 C 0.538,-0.837 0.494,-0.941 0.411,-1.008 0.37,-1.049 0.206,-1.145 -0.015,-1.145 c -0.27,0 -0.541,0.125 -0.777,0.131 -0.071,0.003 -0.143,-0.022 -0.166,-0.047 -0.077,-0.074 -0.078,-0.173 -0.01,-0.262 0.238,0.004 0.23,-0.264 0.197,-0.39 -0.118,-0.302 -0.354,-0.314 -0.466,-0.302 -0.139,0.013 -0.28,0.074 -0.342,0.145 -0.117,-0.341 0.115,-0.618 0.427,-0.634 -0.214,-0.175 -0.641,-0.038 -0.682,0.194 -0.033,-0.032 -0.056,-0.107 -0.061,-0.171 -0.027,-0.42 0.312,-0.591 0.737,-0.574 -0.248,-0.099 -0.565,-0.049 -0.854,0.036 -0.261,0.075 -0.409,0.145 -0.59,0.236 -0.222,0.105 -0.459,0.298 -0.575,0.502 -0.039,0.07 -0.078,0.196 -0.073,0.283 0.019,0.32 0.385,0.363 0.337,0.73 -0.257,0.077 -0.514,-0.047 -0.591,-0.294 -0.022,-0.067 -0.03,-0.144 -0.02,-0.232 -0.093,0.08 -0.184,0.189 -0.284,0.274 -0.081,0.073 -0.168,0.118 -0.264,0.111 -0.007,-10e-4 -0.025,-0.077 -0.091,-0.158 -0.024,-0.029 -0.125,-0.12 -0.125,-0.12 0.005,-0.057 0.057,-0.119 0.08,-0.139 0.079,-0.07 0.236,-0.111 0.301,-0.218 0.021,-0.032 0.03,-0.069 0.025,-0.117 -0.069,-0.022 -0.134,-0.02 -0.192,-0.007 -0.196,0.046 -0.346,0.222 -0.572,0.235 -0.095,0.005 -0.19,-0.012 -0.234,-0.076 0.06,-0.08 0.051,-0.242 -0.007,-0.339 0.036,-0.082 0.111,-0.115 0.197,-0.125 0.129,-0.015 0.285,0.008 0.41,-0.006 0.064,-0.007 0.122,-0.026 0.161,-0.068 -0.075,-0.052 -0.134,-0.092 -0.218,-0.111 -0.179,-0.039 -0.396,0.095 -0.548,0.011 0,0 0.034,-0.072 0.008,-0.157 -0.021,-0.078 -0.06,-0.149 -0.06,-0.149 0.08,-0.073 0.164,-0.102 0.246,-0.103 0.165,-10e-4 0.337,0.097 0.5,0.157 0.077,0.028 0.151,0.048 0.222,0.048 -0.132,-0.172 -0.341,-0.336 -0.584,-0.357 -0.032,-0.003 -0.076,-0.003 -0.076,-0.003 10e-4,-0.028 0.062,-0.059 0.08,-0.07 0.055,-0.026 0.146,-0.05 0.221,-0.053 0.327,-0.014 0.595,0.097 0.821,0.227 -0.101,-0.204 -0.285,-0.323 -0.519,-0.392 0.023,-0.03 0.08,-0.04 0.127,-0.047 0.503,-0.082 0.955,0.257 0.955,0.257 -0.01,-0.094 -0.083,-0.235 -0.244,-0.336 -0.082,-0.05 -0.174,-0.064 -0.174,-0.064 0.069,-0.07 0.254,-0.077 0.38,-0.067 0.146,0.011 0.317,0.072 0.46,0.1 0.23,0.044 0.369,0.033 0.51,0.063 -0.157,-0.063 -0.319,-0.123 -0.483,-0.187 -0.199,-0.073 -0.386,-0.17 -0.563,-0.266 -0.184,-0.1 -0.345,-0.232 -0.519,-0.319 -0.189,-0.096 -0.408,-0.054 -0.494,0.097 -0.042,0.075 -0.038,0.153 -0.057,0.232 -0.041,0.189 -0.182,0.345 -0.392,0.344 -0.017,-0.163 -0.153,-0.268 -0.222,-0.315 0.028,-0.293 0.408,-0.29 0.448,-0.591 -0.031,-0.021 -0.103,-0.029 -0.176,-0.006 -0.156,0.045 -0.257,0.106 -0.403,0.108 -0.084,0.002 -0.163,-0.016 -0.236,-0.063 0.029,-0.03 0.052,-0.065 0.065,-0.113 0.024,-0.092 -0.006,-0.199 -0.048,-0.262 0.055,-0.06 0.129,-0.079 0.21,-0.078 0.137,10e-4 0.297,0.053 0.418,0.061 0.074,0.005 0.161,0.007 0.226,-0.028 -0.075,-0.191 -0.353,-0.173 -0.563,-0.228 -0.102,-0.026 -0.184,-0.067 -0.226,-0.154 0.143,-0.048 0.243,-0.152 0.234,-0.35 0.073,-0.005 0.135,0.012 0.19,0.035 0.183,0.079 0.289,0.275 0.471,0.337 -0.007,-0.199 -0.13,-0.314 -0.16,-0.488 -0.01,-0.055 -0.009,-0.114 0.006,-0.184 0,0 0.09,0.043 0.185,0.041 0.086,-0.003 0.131,-0.028 0.179,-0.058 0.05,0.046 0.079,0.112 0.095,0.182 0.031,0.132 0.021,0.289 0.027,0.417 0.012,0.074 0.009,0.103 0.065,0.113 0.249,-0.001 0.514,0.137 0.614,0.245 -0.044,-0.156 -0.096,-0.247 -0.184,-0.35 -0.031,-0.033 -0.1,-0.099 -0.127,-0.123 0.154,-0.02 0.309,0.025 0.433,0.103 0.256,0.168 0.476,0.385 0.585,0.656 0.03,-0.117 0.022,-0.258 -0.018,-0.372 -0.029,-0.082 -0.082,-0.165 -0.117,-0.204 0.041,-0.01 0.125,0.007 0.175,0.027 0.187,0.082 0.323,0.244 0.425,0.452 0.05,0.103 0.101,0.245 0.12,0.375 0.107,-0.113 0.132,-0.301 0.051,-0.513 -0.017,-0.043 -0.048,-0.088 -0.056,-0.103 0.124,0.015 0.221,0.101 0.309,0.182 0.146,0.144 0.275,0.423 0.245,0.673 0.139,-0.124 0.177,-0.455 0.092,-0.638 0.123,0.032 0.227,0.114 0.314,0.208 0.103,0.106 0.164,0.189 0.225,0.389 0.058,0.192 0.017,0.327 0.017,0.327 0.029,-0.022 0.065,-0.091 0.08,-0.15 0.056,-0.243 -0.013,-0.523 -0.217,-0.718 -0.035,-0.033 -0.101,-0.084 -0.11,-0.091 0.136,-0.184 0.378,-0.258 0.65,-0.271 0.453,-0.026 0.722,0.167 1.146,0.214 C 0.74,-5.079 0.58,-5.184 0.475,-5.231 0.228,-5.347 0.006,-5.421 -0.188,-5.413 c -0.114,0.004 -0.245,0.003 -0.36,0.061 -0.086,-0.102 -0.102,-0.224 -0.084,-0.396 0.025,-0.229 0.151,-0.378 0.094,-0.614 -0.117,-0.441 -0.903,-0.375 -1.192,-0.161 -0.237,0.177 -0.217,0.592 -0.43,0.77 -0.064,0.054 -0.145,0.085 -0.26,0.084 -0.041,-0.137 -0.133,-0.217 -0.239,-0.289 0.014,-0.085 0.056,-0.146 0.105,-0.197 0.086,-0.092 0.211,-0.152 0.283,-0.26 0.03,-0.044 0.053,-0.097 0.061,-0.164 -0.079,-0.004 -0.145,0.013 -0.208,0.043 -0.159,0.077 -0.277,0.236 -0.461,0.275 -0.064,0.014 -0.136,0.012 -0.225,-0.011 0.033,-0.092 -0.023,-0.242 -0.109,-0.307 0.067,-0.182 0.25,-0.283 0.485,-0.296 0.132,-0.008 0.283,0.005 0.361,-0.092 -0.183,-0.196 -0.474,-0.003 -0.728,-0.003 -0.07,0 -0.133,-0.014 -0.196,-0.054 0.012,-0.015 0.041,-0.077 0.047,-0.137 0.009,-0.088 -0.052,-0.21 -0.052,-0.21 0.006,-0.072 0.155,-0.11 0.234,-0.12 0.057,-0.007 0.122,-0.003 0.175,0.007 0.187,0.032 0.391,0.166 0.582,0.148 0.03,-0.004 0.078,-0.015 0.09,-0.04 -0.061,-0.151 -0.214,-0.171 -0.306,-0.268 -0.033,-0.036 -0.061,-0.082 -0.071,-0.147 0.159,0.038 0.213,-0.026 0.291,-0.124 0.072,-0.008 0.133,0.014 0.184,0.051 0.097,0.074 0.164,0.23 0.229,0.307 0.023,0.03 0.046,0.074 0.099,0.064 0.03,-0.005 0.066,-0.069 0.104,-0.116 0.132,-0.167 0.364,-0.302 0.656,-0.268 0.084,0.009 0.172,0.046 0.227,0.112 -0.187,0.032 -0.319,0.158 -0.381,0.332 0.163,-0.119 0.446,-0.223 0.68,-0.183 0.033,0.007 0.105,0.032 0.116,0.058 -0.182,0.048 -0.328,0.23 -0.262,0.454 0.082,-0.138 0.254,-0.266 0.455,-0.284 0.065,-0.005 0.141,-0.008 0.199,0.034 -0.032,0.031 -0.071,0.066 -0.093,0.114 -0.024,0.049 -0.039,0.121 -0.031,0.183 0.024,0.165 0.25,0.209 0.399,0.227 0.191,0.024 0.398,-0.022 0.567,0.046 0.124,0.048 0.233,0.141 0.221,0.272 -0.063,-0.044 -0.148,-0.085 -0.256,-0.075 -0.166,0.014 -0.218,0.153 -0.218,0.253 0,0.199 0.12,0.296 0.355,0.311 0.104,0.006 0.269,-0.02 0.364,-0.06 -0.005,0 0.155,-0.059 0.156,-0.053 -0.068,0.133 0.007,0.369 0.051,0.477 0.083,0.186 0.172,0.292 0.221,0.459 C 1.752,-5.234 1.756,-5.27 1.752,-5.31 1.732,-5.503 1.655,-5.616 1.633,-5.835 1.621,-5.949 1.667,-6.113 1.764,-6.193 1.956,-6.342 2.257,-6.395 2.361,-6.64 2.435,-6.829 2.361,-6.993 2.269,-7.115 2.137,-7.301 1.936,-7.46 1.714,-7.565 1.654,-7.594 1.544,-7.647 1.437,-7.61 1.245,-7.547 1.175,-7.187 1.004,-7.07 0.94,-7.027 0.857,-7.012 0.766,-7.035 0.756,-7.101 0.74,-7.131 0.694,-7.189 0.666,-7.226 0.594,-7.274 0.594,-7.283 0.602,-7.358 0.652,-7.428 0.677,-7.451 0.769,-7.535 0.961,-7.587 1.004,-7.702 0.983,-7.732 0.939,-7.74 0.899,-7.741 0.689,-7.749 0.594,-7.562 0.397,-7.547 0.352,-7.543 0.266,-7.547 0.221,-7.581 0.231,-7.64 0.227,-7.662 0.213,-7.708 0.193,-7.77 0.177,-7.79 0.148,-7.832 0.183,-7.988 0.446,-8.002 0.66,-8.021 0.721,-8.026 0.792,-8.038 0.822,-8.083 0.768,-8.13 0.7,-8.172 0.625,-8.186 0.467,-8.215 0.324,-8.125 0.174,-8.114 0.121,-8.111 0.055,-8.129 0,-8.162 0.014,-8.195 0.021,-8.271 0.008,-8.332 -0.008,-8.402 -0.013,-8.441 -0.034,-8.467 -0.009,-8.494 0.067,-8.536 0.15,-8.539 0.364,-8.546 0.542,-8.371 0.765,-8.453 0.678,-8.589 0.522,-8.598 0.394,-8.677 0.343,-8.71 0.286,-8.768 0.255,-8.829 0.302,-8.853 0.34,-8.884 0.37,-8.924 c 0.023,-0.041 0.043,-0.08 0.05,-0.143 0.268,-0.018 0.392,0.16 0.52,0.301 0.188,0.206 0.452,0.339 0.812,0.365 0.393,0.027 0.895,-0.16 1.073,0.176 -0.217,0.01 -0.476,0.053 -0.553,0.204 0.383,-0.11 0.853,-0.003 1.047,0.239 -0.263,-0.05 -0.534,0.011 -0.638,0.177 0.293,-0.077 0.612,-0.034 0.837,0.104 0.149,0.088 0.308,0.223 0.349,0.391 C 3.847,-7.115 3.802,-7.138 3.763,-7.154 3.575,-7.235 3.245,-7.22 3.167,-7.07 c 0.17,-0.01 0.325,0.021 0.444,0.086 0.163,0.092 0.249,0.23 0.302,0.324 0.065,0.121 0.124,0.241 0.211,0.342 0.033,0.04 0.075,0.062 0.106,0.075 -0.027,0.032 -0.098,0.035 -0.146,0.027 -0.241,-0.043 -0.347,-0.267 -0.571,-0.313 0.084,0.237 0.122,0.553 0.126,0.827 0.46,-0.178 0.863,-0.041 1.067,0.237 0.124,0.168 0.154,0.371 0.154,0.514 0,0.285 -0.154,0.497 -0.298,0.655 -0.271,0.291 -0.614,0.502 -0.94,0.727 -0.224,0.156 -0.455,0.316 -0.644,0.489 -0.135,0.121 -0.282,0.293 -0.316,0.498 -0.051,0.31 0.139,0.547 0.35,0.613 C 3.701,-1.761 4.407,-2.506 4.74,-2.897 4.816,-2.983 5.09,-3.304 4.982,-3.513 4.95,-3.569 4.868,-3.604 4.812,-3.598 4.713,-3.589 4.634,-3.494 4.704,-3.347 4.521,-3.388 4.446,-3.657 4.552,-3.809 c 0.077,-0.113 0.211,-0.128 0.309,-0.11 0.087,0.014 0.168,0.068 0.211,0.136 -0.126,-0.373 0.017,-0.76 0.201,-0.963 0.219,-0.242 0.529,-0.3 0.66,-0.308 0.343,-0.021 0.683,0.062 0.903,0.344 0.152,0.193 0.225,0.473 0.152,0.719 -0.053,0.175 -0.212,0.32 -0.367,0.333"
             style="fill:#ee2722;fill-opacity:1;fill-rule:nonzero;stroke:none"
             id="path870" />
        </g>
        <g
           id="g872"
           transform="matrix(1.25,0,0,-1.25,592.15441,391.98755)">
          <path
             inkscape:connector-curvature="0"
             d="M 0,0 1.144,1.283 2.271,-0.024 1.164,-1.3 0,0 z m 1.156,2.169 -1.93,-2.174 1.93,-2.173 1.885,2.173 -1.885,2.174 z"
             style="fill:#fff200;fill-opacity:1;fill-rule:nonzero;stroke:none"
             id="path874" />
        </g>
        <g
           id="g876"
           transform="matrix(1.25,0,0,-1.25,578.15766,393.61217)">
          <path
             inkscape:connector-curvature="0"
             d="M 0,0 -1.163,1.3 -0.018,2.583 1.108,1.276 0,0 z m -1.939,1.295 1.931,-2.173 1.884,2.173 -1.884,2.174 -1.931,-2.174 z"
             style="fill:#fff200;fill-opacity:1;fill-rule:nonzero;stroke:none"
             id="path878" />
        </g>
        <g
           id="g880"
           transform="matrix(1.25,0,0,-1.25,580.94228,414.02405)">
          <path
             inkscape:connector-curvature="0"
             d="M 0,0 C 0.189,0.187 0.341,0.091 0.341,0.091 0.43,0.184 0.416,0.385 0.346,0.438 0.156,0.389 -0.006,0.245 0,0"
             style="fill:#1c4f9c;fill-opacity:1;fill-rule:evenodd;stroke:none"
             id="path882" />
        </g>
        <g
           id="g884"
           transform="matrix(1.25,0,0,-1.25,582.24891,414.43605)">
          <path
             inkscape:connector-curvature="0"
             d="m 0,0 c 0,0 -0.089,-0.336 0.15,-0.441 0,0 -0.043,0.179 0.141,0.317 C 0.242,-0.013 0.102,0.057 0,0"
             style="fill:#1c4f9c;fill-opacity:1;fill-rule:evenodd;stroke:none"
             id="path886" />
        </g>
        <g
           id="g888"
           transform="matrix(1.25,0,0,-1.25,580.94953,412.92543)">
          <path
             inkscape:connector-curvature="0"
             d="M 0,0 C 0,0 0.092,0.038 0.226,0.033 0.331,0.031 0.418,0.004 0.418,0.004 0.501,0.041 0.59,0.221 0.527,0.311 0.279,0.302 0.061,0.176 0,0"
             style="fill:#1c4f9c;fill-opacity:1;fill-rule:evenodd;stroke:none"
             id="path890" />
        </g>
        <g
           id="g892"
           transform="matrix(1.25,0,0,-1.25,581.36091,406.3483)">
          <path
             inkscape:connector-curvature="0"
             d="M 0,0 C 0.102,0.062 0.248,0.078 0.389,0.053 0.381,0.133 0.273,0.214 0.22,0.238 0.096,0.296 0.022,0.322 -0.127,0.319 -0.231,0.315 -0.291,0.281 -0.291,0.281 -0.184,0.215 -0.04,0.148 0,0"
             style="fill:#1c4f9c;fill-opacity:1;fill-rule:evenodd;stroke:none"
             id="path894" />
        </g>
        <g
           id="g896"
           transform="matrix(1.25,0,0,-1.25,582.46329,411.78318)">
          <path
             inkscape:connector-curvature="0"
             d="M 0,0 C -0.162,0.052 -0.368,0.018 -0.495,-0.044 -0.608,-0.101 -0.683,-0.19 -0.683,-0.19 -0.384,-0.159 -0.239,-0.289 -0.239,-0.289 -0.148,-0.269 0.011,-0.126 0,0"
             style="fill:#1c4f9c;fill-opacity:1;fill-rule:evenodd;stroke:none"
             id="path898" />
        </g>
        <g
           id="g900"
           transform="matrix(1.25,0,0,-1.25,580.39878,406.45805)">
          <path
             inkscape:connector-curvature="0"
             d="m 0,0 c -0.266,0.073 -0.538,-0.072 -0.609,-0.272 0,0 0.206,0.084 0.393,-0.006 0,0 0.186,0.114 0.216,0.278"
             style="fill:#1c4f9c;fill-opacity:1;fill-rule:evenodd;stroke:none"
             id="path902" />
        </g>
        <g
           id="g904"
           transform="matrix(1.25,0,0,-1.25,578.74141,408.44105)">
          <path
             inkscape:connector-curvature="0"
             d="m 0,0 c 0,0 0.246,0.093 0.461,0.042 0,0 0.135,0.179 0.052,0.306 C 0.248,0.32 0.082,0.177 0,0"
             style="fill:#1c4f9c;fill-opacity:1;fill-rule:evenodd;stroke:none"
             id="path906" />
        </g>
        <g
           id="g908"
           transform="matrix(1.25,0,0,-1.25,579.01816,409.6358)">
          <path
             inkscape:connector-curvature="0"
             d="M 0,0 C 0.132,0.021 0.332,0.035 0.434,-0.056 0.596,0.032 0.675,0.193 0.656,0.259 0.635,0.27 0.539,0.275 0.512,0.275 0.239,0.278 0.082,0.159 0,0"
             style="fill:#1c4f9c;fill-opacity:1;fill-rule:evenodd;stroke:none"
             id="path910" />
        </g>
        <g
           id="g912"
           transform="matrix(1.25,0,0,-1.25,585.73579,400.0603)">
          <path
             inkscape:connector-curvature="0"
             d="m 0,0 c 0.318,0 0.455,0.273 0.455,0.273 0.448,-0.008 2.453,0 2.453,0 l -0.007,2.898 -0.309,0 10e-4,-2.608 c 0,0 -0.161,-0.152 -0.532,-0.152 -0.444,0 -0.947,0.191 -1.394,0.191 -0.446,0 -0.62,-0.218 -0.667,-0.257 0,0 -0.226,0.257 -0.653,0.257 -0.443,0 -0.97,-0.181 -1.489,-0.181 -0.27,0 -0.423,0.129 -0.461,0.142 l 0.003,2.608 -0.296,0 0,-2.898 2.434,0 C -0.462,0.273 -0.337,0 0,0"
             style="fill:#1c4f9c;fill-opacity:1;fill-rule:evenodd;stroke:none"
             id="path914" />
        </g>
        <g
           id="g916"
           transform="matrix(1.25,0,0,-1.25,579.12404,410.86493)">
          <path
             inkscape:connector-curvature="0"
             d="m 0,0 c 0.074,0.044 0.111,0.296 -0.017,0.376 0,0 -0.135,-0.031 -0.279,-0.196 -0.06,-0.07 -0.132,-0.204 -0.105,-0.318 0,0 0.078,0.087 0.217,0.129 C -0.106,0.013 -0.042,0.012 0,0"
             style="fill:#1c4f9c;fill-opacity:1;fill-rule:evenodd;stroke:none"
             id="path918" />
        </g>
        <g
           id="g920"
           transform="matrix(1.25,0,0,-1.25,579.20554,411.39842)">
          <path
             inkscape:connector-curvature="0"
             d="m 0,0 c -0.097,-0.099 -0.184,-0.286 -0.144,-0.486 0.019,-0.096 0.091,-0.14 0.091,-0.14 0.024,0.121 0.123,0.26 0.286,0.276 C 0.274,-0.133 0.082,0 0,0"
             style="fill:#1c4f9c;fill-opacity:1;fill-rule:evenodd;stroke:none"
             id="path922" />
        </g>
        <g
           id="g924"
           transform="matrix(1.25,0,0,-1.25,579.37966,407.63192)">
          <path
             inkscape:connector-curvature="0"
             d="m 0,0 c 0,0 0.131,0.191 0.007,0.339 -0.2,-0.046 -0.367,-0.203 -0.398,-0.429 0,0 0.069,0.048 0.138,0.07 C -0.149,0.014 -0.057,0.006 0,0"
             style="fill:#1c4f9c;fill-opacity:1;fill-rule:evenodd;stroke:none"
             id="path926" />
        </g>
        <g
           id="g928"
           transform="matrix(1.25,0,0,-1.25,580.13103,412.21042)">
          <path
             inkscape:connector-curvature="0"
             d="M 0,0 C 0,0 0.016,-0.227 0.174,-0.367 0.22,-0.409 0.284,-0.456 0.362,-0.452 0.27,-0.339 0.296,-0.145 0.364,-0.017 0.282,0.063 0.098,0.061 0,0"
             style="fill:#1c4f9c;fill-opacity:1;fill-rule:evenodd;stroke:none"
             id="path930" />
        </g>
        <g
           id="g932"
           transform="matrix(1.25,0,0,-1.25,585.85316,413.76842)">
          <path
             inkscape:connector-curvature="0"
             d="M 0,0 C 0.089,0.03 0.224,0.041 0.303,-0.026 0.403,0.04 0.478,0.128 0.474,0.222 0.275,0.28 0.035,0.195 0,0"
             style="fill:#1c4f9c;fill-opacity:1;fill-rule:evenodd;stroke:none"
             id="path934" />
        </g>
        <g
           id="g936"
           transform="matrix(1.25,0,0,-1.25,585.73829,402.13017)">
          <path
             inkscape:connector-curvature="0"
             d="m 0,0 8.244,-4.838 c 0.945,2.542 0.929,5.702 0.769,10.15 L 0,0 z"
             style="fill:#1c4f9c;fill-opacity:1;fill-rule:evenodd;stroke:none"
             id="path938" />
        </g>
        <g
           id="g940"
           transform="matrix(1.25,0,0,-1.25,584.92416,415.4018)">
          <path
             inkscape:connector-curvature="0"
             d="M 0,0 C 0,0 0.058,0.051 0.151,0.09 0.219,0.121 0.348,0.139 0.418,0.096 0.48,0.13 0.504,0.359 0.452,0.401 0.254,0.381 0.024,0.221 0,0"
             style="fill:#1c4f9c;fill-opacity:1;fill-rule:evenodd;stroke:none"
             id="path942" />
        </g>
        <g
           id="g944"
           transform="matrix(1.25,0,0,-1.25,585.80728,415.73342)">
          <path
             inkscape:connector-curvature="0"
             d="m 0,0 c -0.087,-0.068 -0.226,-0.283 -0.199,-0.451 0.013,-0.084 0.081,-0.125 0.081,-0.125 0.035,0.15 0.169,0.292 0.283,0.338 C 0.188,-0.151 0.068,-0.003 0,0"
             style="fill:#1c4f9c;fill-opacity:1;fill-rule:evenodd;stroke:none"
             id="path946" />
        </g>
        <g
           id="g948"
           transform="matrix(1.25,0,0,-1.25,575.47791,408.17755)">
          <path
             inkscape:connector-curvature="0"
             d="m 0,0 8.208,4.838 -8.977,5.268 C -0.929,5.681 -0.942,2.534 0,0"
             style="fill:#1c4f9c;fill-opacity:1;fill-rule:evenodd;stroke:none"
             id="path950" />
        </g>
        <g
           id="g952"
           transform="matrix(1.25,0,0,-1.25,585.76266,418.15155)">
          <path
             inkscape:connector-curvature="0"
             d="m 0,0 c -8.196,3.975 -9.62,7.328 -9.62,14.695 0,1.674 0.073,3.554 0.157,5.697 0,0 0.11,3.071 0.131,3.654 l 18.665,0 C 9.355,23.463 9.461,20.394 9.461,20.394 9.545,18.249 9.62,16.367 9.62,14.691 9.62,7.327 8.195,3.975 0,0 M 10.112,20.37 9.959,24.678 -9.958,24.68 -10.11,20.367 C -10.56,8.786 -10.73,4.452 -0.154,-0.634 L 0,-0.707 0.156,-0.634 c 10.575,5.087 10.406,9.42 9.956,21.004"
             style="fill:#1c4f9c;fill-opacity:1;fill-rule:evenodd;stroke:none"
             id="path954" />
        </g>
        <g
           id="g956"
           transform="matrix(1.25,0,0,-1.25,585.00666,405.8313)">
          <path
             inkscape:connector-curvature="0"
             d="M 0,0 C -0.024,-0.039 -0.059,-0.125 -0.094,-0.168 -0.043,-0.184 0.041,-0.208 0.082,-0.202 0.056,-0.153 0.024,-0.045 0,0"
             style="fill:#1c4f9c;fill-opacity:1;fill-rule:evenodd;stroke:none"
             id="path958" />
        </g>
        <g
           id="g960"
           transform="matrix(1.25,0,0,-1.25,585.04403,405.1773)">
          <path
             inkscape:connector-curvature="0"
             d="M 0,0 C 0.024,-0.052 0.068,-0.2 0.07,-0.2 0.101,-0.134 0.15,-0.038 0.18,0.033 0.116,0.033 0.041,0.017 0,0"
             style="fill:#1c4f9c;fill-opacity:1;fill-rule:evenodd;stroke:none"
             id="path962" />
        </g>
        <g
           id="g964"
           transform="matrix(1.25,0,0,-1.25,585.40304,405.12042)">
          <path
             inkscape:connector-curvature="0"
             d="m 0,0 c 0,0 0.064,-0.154 0.09,-0.217 0.026,0.065 0.093,0.15 0.125,0.214 C 0.146,0.015 0.07,0.02 0,0"
             style="fill:#1c4f9c;fill-opacity:1;fill-rule:evenodd;stroke:none"
             id="path966" />
        </g>
        <g
           id="g968"
           transform="matrix(1.25,0,0,-1.25,584.68003,405.28268)">
          <path
             inkscape:connector-curvature="0"
             d="m 0,0 c 0,0 0.071,-0.111 0.092,-0.159 l 0.067,0.21 C 0.122,0.051 0.04,0.021 0,0"
             style="fill:#1c4f9c;fill-opacity:1;fill-rule:evenodd;stroke:none"
             id="path970" />
        </g>
        <g
           id="g972"
           transform="matrix(1.25,0,0,-1.25,585.15028,414.5058)">
          <path
             inkscape:connector-curvature="0"
             d="M 0,0 C 0.078,0.057 0.277,0.103 0.418,0.015 0.464,0.037 0.529,0.182 0.492,0.266 0.271,0.331 0.047,0.184 0,0"
             style="fill:#1c4f9c;fill-opacity:1;fill-rule:evenodd;stroke:none"
             id="path974" />
        </g>
        <g
           id="g976"
           transform="matrix(1.25,0,0,-1.25,585.36391,405.83205)">
          <path
             inkscape:connector-curvature="0"
             d="M 0,0 C -0.013,-0.064 -0.073,-0.188 -0.089,-0.237 -0.024,-0.25 0.038,-0.27 0.098,-0.256 0.067,-0.194 0.016,-0.061 0,0"
             style="fill:#1c4f9c;fill-opacity:1;fill-rule:evenodd;stroke:none"
             id="path978" />
        </g>
        <g
           id="g980"
           transform="matrix(1.25,0,0,-1.25,585.73728,405.78318)">
          <path
             inkscape:connector-curvature="0"
             d="m 0,0 c -0.034,-0.067 -0.05,-0.204 -0.081,-0.274 0.067,-0.015 0.14,0.043 0.191,0.068 C 0.074,-0.145 0.035,-0.059 0,0"
             style="fill:#1c4f9c;fill-opacity:1;fill-rule:evenodd;stroke:none"
             id="path982" />
        </g>
        <g
           id="g984"
           transform="matrix(1.25,0,0,-1.25,586.01478,405.4738)">
          <path
             inkscape:connector-curvature="0"
             d="m 0,0 c -0.079,0.009 -0.194,0.006 -0.293,-0.011 -0.336,-0.056 -0.755,-0.116 -1.021,-0.097 -0.212,0.014 -0.517,0.084 -0.521,0.38 -0.002,0.108 0.056,0.211 0.056,0.211 C -1.901,0.458 -2.05,0.306 -2.032,0.11 c 0.022,-0.234 0.231,-0.367 0.647,-0.381 0.34,-0.012 0.795,0.091 1.084,0.16 C -0.096,-0.063 0,0 0,0"
             style="fill:#1c4f9c;fill-opacity:1;fill-rule:evenodd;stroke:none"
             id="path986" />
        </g>
        <g
           id="g988"
           transform="matrix(1.25,0,0,-1.25,582.97666,399.00992)">
          <path
             inkscape:connector-curvature="0"
             d="M 0,0 0,2.562 C 0.318,2.356 0.691,2.437 1.046,2.523 1.46,2.627 1.846,2.723 2.17,2.368 l 0,-2.595 C 1.829,0.086 1.42,0.013 1.026,-0.078 0.652,-0.163 0.303,-0.238 0,0 M 2.241,2.374 C 2.56,2.705 2.951,2.627 3.365,2.523 3.718,2.437 4.086,2.356 4.403,2.562 l 0,-2.565 C 4.117,-0.211 3.754,-0.163 3.385,-0.078 2.992,0.013 2.588,0.086 2.241,-0.227 l 0,2.601 z M 1.606,-0.064 c 0.341,0 0.559,-0.254 0.559,-0.254 l 0.083,0 c 0.146,0.157 0.323,0.254 0.554,0.254 0.37,0 0.775,-0.161 1.117,-0.157 0.32,0.003 0.525,0.165 0.552,0.185 l 0,2.737 L 4.408,2.655 C 4.108,2.416 3.754,2.503 3.384,2.595 2.974,2.697 2.562,2.79 2.207,2.429 1.852,2.785 1.428,2.696 1.027,2.595 0.652,2.503 0.303,2.416 -0.001,2.655 l -0.061,0.046 0,-2.731 c 0.031,-0.021 0.212,-0.198 0.551,-0.198 0.339,0 0.76,0.164 1.117,0.164"
             style="fill:#1c4f9c;fill-opacity:1;fill-rule:evenodd;stroke:none"
             id="path990" />
        </g>
        <g
           id="g992"
           transform="matrix(1.25,0,0,-1.25,584.28078,397.50717)">
          <path
             inkscape:connector-curvature="0"
             d="m 0,0 c 0.35,0.088 0.683,0.171 0.979,-0.026 l 0,0.089 C 0.671,0.242 0.319,0.157 -0.019,0.073 -0.331,-0.005 -0.629,-0.075 -0.89,0.037 l 0,-0.079 C -0.612,-0.149 -0.302,-0.072 0,0"
             style="fill:#1c4f9c;fill-opacity:1;fill-rule:evenodd;stroke:none"
             id="path994" />
        </g>
        <g
           id="g996"
           transform="matrix(1.25,0,0,-1.25,584.28078,396.6578)">
          <path
             inkscape:connector-curvature="0"
             d="m 0,0 c 0.35,0.091 0.683,0.172 0.979,-0.025 l 0,0.089 c -0.308,0.18 -0.66,0.095 -0.998,0.011 -0.312,-0.08 -0.61,-0.15 -0.871,-0.037 l 0,-0.08 C -0.612,-0.149 -0.302,-0.072 0,0"
             style="fill:#1c4f9c;fill-opacity:1;fill-rule:evenodd;stroke:none"
             id="path998" />
        </g>
        <g
           id="g1000"
           transform="matrix(1.25,0,0,-1.25,585.50504,398.39667)">
          <path
             inkscape:connector-curvature="0"
             d="M 0,0 0,0.088 C -0.308,0.266 -0.66,0.184 -0.999,0.098 -1.31,0.022 -1.607,-0.051 -1.869,0.063 l 0,-0.077 c 0.277,-0.11 0.588,-0.033 0.89,0.04 C -0.63,0.113 -0.296,0.197 0,0"
             style="fill:#1c4f9c;fill-opacity:1;fill-rule:evenodd;stroke:none"
             id="path1002" />
        </g>
        <g
           id="g1004"
           transform="matrix(1.25,0,0,-1.25,587.18041,397.50717)">
          <path
             inkscape:connector-curvature="0"
             d="m 0,0 c 0.302,-0.072 0.605,-0.149 0.888,-0.042 l 0,0.079 C 0.621,-0.075 0.331,-0.005 0.018,0.073 -0.318,0.157 -0.672,0.242 -0.979,0.063 l 0,-0.089 C -0.69,0.171 -0.35,0.088 0,0"
             style="fill:#1c4f9c;fill-opacity:1;fill-rule:evenodd;stroke:none"
             id="path1006" />
        </g>
        <g
           id="g1008"
           transform="matrix(1.25,0,0,-1.25,587.18041,396.6578)">
          <path
             inkscape:connector-curvature="0"
             d="m 0,0 c 0.302,-0.072 0.605,-0.149 0.888,-0.042 l 0,0.08 C 0.621,-0.075 0.331,-0.005 0.018,0.075 -0.318,0.159 -0.672,0.244 -0.979,0.064 l 0,-0.089 C -0.69,0.172 -0.35,0.091 0,0"
             style="fill:#1c4f9c;fill-opacity:1;fill-rule:evenodd;stroke:none"
             id="path1010" />
        </g>
        <g
           id="g1012"
           transform="matrix(1.25,0,0,-1.25,587.18041,398.36442)">
          <path
             inkscape:connector-curvature="0"
             d="m 0,0 c 0.302,-0.073 0.605,-0.149 0.888,-0.04 l 0,0.077 C 0.621,-0.076 0.33,-0.004 0.018,0.072 -0.319,0.159 -0.672,0.241 -0.979,0.062 l 0,-0.088 C -0.69,0.171 -0.35,0.087 0,0"
             style="fill:#1c4f9c;fill-opacity:1;fill-rule:evenodd;stroke:none"
             id="path1014" />
        </g>
      </g>
    </g>
  </g>
</svg>
